<?xml version="1.0" encoding="UTF-8" standalone="no"?>
<!-- Created with Inkscape (http://www.inkscape.org/) -->

<svg
   width="64"
   height="64"
   viewBox="0 0 64 64"
   version="1.1"
   id="svg1"
   xml:space="preserve"
   inkscape:version="1.4.4 (dcaf3e7d9e, 2026-05-05)"
   sodipodi:docname="MeshResetOrigin.svg"
   xmlns:inkscape="http://www.inkscape.org/namespaces/inkscape"
   xmlns:sodipodi="http://sodipodi.sourceforge.net/DTD/sodipodi-0.dtd"
   xmlns:xlink="http://www.w3.org/1999/xlink"
   xmlns="http://www.w3.org/2000/svg"
   xmlns:svg="http://www.w3.org/2000/svg"><sodipodi:namedview
     id="namedview1"
     pagecolor="#ffffff"
     bordercolor="#000000"
     borderopacity="0.25"
     inkscape:showpageshadow="2"
     inkscape:pageopacity="0.0"
     inkscape:pagecheckerboard="true"
     inkscape:deskcolor="#d1d1d1"
     inkscape:document-units="px"
     inkscape:zoom="1"
     inkscape:cx="-235.5"
     inkscape:cy="68.5"
     inkscape:window-width="1647"
     inkscape:window-height="1177"
     inkscape:window-x="116"
     inkscape:window-y="82"
     inkscape:window-maximized="0"
     inkscape:current-layer="layer1" /><defs
     id="defs1"><linearGradient
       id="linearGradient4387"><stop
         style="stop-color:#71b2f8;stop-opacity:1;"
         offset="0"
         id="stop4389" /><stop
         style="stop-color:#002795;stop-opacity:1;"
         offset="1"
         id="stop4391" /></linearGradient><radialGradient
       inkscape:collect="always"
       xlink:href="#linearGradient3377"
       id="radialGradient3048"
       gradientUnits="userSpaceOnUse"
       gradientTransform="translate(-68.915512,-13.766745)"
       cx="45.883327"
       cy="28.869568"
       fx="45.883327"
       fy="28.869568"
       r="19.467436" /><linearGradient
       id="linearGradient3377"><stop
         id="stop3379"
         offset="0"
         style="stop-color:#faff2b;stop-opacity:1;" /><stop
         id="stop3381"
         offset="1"
         style="stop-color:#ffaa00;stop-opacity:1;" /></linearGradient><linearGradient
       inkscape:collect="always"
       xlink:href="#linearGradient4081"
       id="linearGradient4165"
       x1="16.000002"
       y1="48"
       x2="12.000001"
       y2="60"
       gradientUnits="userSpaceOnUse"
       gradientTransform="matrix(-1,0,0,1,36.000001,-4)" /><linearGradient
       id="linearGradient4081"><stop
         style="stop-color:#ef2929;stop-opacity:1"
         offset="0"
         id="stop4083" /><stop
         style="stop-color:#a40000;stop-opacity:1"
         offset="1"
         id="stop4085" /></linearGradient><linearGradient
       id="linearGradient918"><stop
         style="stop-color:#8ae234;stop-opacity:1"
         offset="0"
         id="stop914" /><stop
         style="stop-color:#4e9a06;stop-opacity:1"
         offset="1"
         id="stop916" /></linearGradient><linearGradient
       id="linearGradient910"><stop
         style="stop-color:#729fcf;stop-opacity:1"
         offset="0"
         id="stop906" /><stop
         style="stop-color:#204a87;stop-opacity:1"
         offset="1"
         id="stop908" /></linearGradient><marker
       orient="auto"
       refY="0"
       refX="0"
       id="marker4732"
       style="overflow:visible"><path
         id="path4734"
         style="fill:#00ff00;fill-opacity:1;fill-rule:evenodd;stroke:#00ff08;stroke-width:0.625;stroke-linejoin:round;stroke-opacity:1"
         d="M 8.7185878,4.0337352 -2.2072895,0.01601326 8.7185884,-4.0017078 c -1.7454984,2.3720609 -1.7354408,5.6174519 -6e-7,8.035443 z"
         transform="matrix(-1.1,0,0,-1.1,-1.1,0)" /></marker><marker
       orient="auto"
       refY="0"
       refX="0"
       id="Arrow2Lstart"
       style="overflow:visible"><path
         id="path4174"
         style="fill:#000000;fill-opacity:1;fill-rule:evenodd;stroke:#000000;stroke-width:0.625;stroke-linejoin:round;stroke-opacity:1"
         d="M 8.7185878,4.0337352 -2.2072895,0.01601326 8.7185884,-4.0017078 c -1.7454984,2.3720609 -1.7354408,5.6174519 -6e-7,8.035443 z"
         transform="matrix(1.1,0,0,1.1,1.1,0)" /></marker><marker
       orient="auto"
       refY="0"
       refX="0"
       id="Arrow1Lstart"
       style="overflow:visible"><path
         id="path4156"
         d="M 0,0 5,-5 -12.5,0 5,5 0,0 z"
         style="fill:#000000;fill-opacity:1;fill-rule:evenodd;stroke:#000000;stroke-width:1pt;stroke-opacity:1"
         transform="matrix(0.8,0,0,0.8,10,0)" /></marker><linearGradient
       id="linearGradient4067-6"><stop
         style="stop-color:#888a85;stop-opacity:1;"
         offset="0"
         id="stop4069-7" /><stop
         style="stop-color:#2e3436;stop-opacity:1;"
         offset="1"
         id="stop4071-5" /></linearGradient><linearGradient
       xlink:href="#linearGradient910"
       id="linearGradient912"
       x1="16.275192"
       y1="999.11859"
       x2="20.275194"
       y2="1005.3622"
       gradientUnits="userSpaceOnUse"
       gradientTransform="translate(-0.32823259,0.25769489)" /><linearGradient
       xlink:href="#linearGradient918"
       id="linearGradient920"
       x1="37.791718"
       y1="1008.163"
       x2="41.744087"
       y2="1014.2588"
       gradientUnits="userSpaceOnUse"
       gradientTransform="translate(0,0.67970822)" /><linearGradient
       xlink:href="#linearGradient4081"
       id="linearGradient928"
       x1="32.554726"
       y1="1037.6899"
       x2="38.136963"
       y2="1044.7837"
       gradientUnits="userSpaceOnUse"
       gradientTransform="translate(0,0.67970822)" /><linearGradient
       inkscape:collect="always"
       id="linearGradient6349"><stop
         style="stop-color:#000000;stop-opacity:1;"
         offset="0"
         id="stop6351" /><stop
         style="stop-color:#000000;stop-opacity:0;"
         offset="1"
         id="stop6353" /></linearGradient><linearGradient
       id="linearGradient3377-5"><stop
         style="stop-color:#0019a3;stop-opacity:1;"
         offset="0"
         id="stop3379-3" /><stop
         style="stop-color:#0069ff;stop-opacity:1;"
         offset="1"
         id="stop3381-5" /></linearGradient><linearGradient
       inkscape:collect="always"
       xlink:href="#linearGradient3377-5"
       id="linearGradient3383"
       x1="901.1875"
       y1="1190.875"
       x2="1267.9062"
       y2="1190.875"
       gradientUnits="userSpaceOnUse"
       gradientTransform="matrix(-1,0,0,1,2199.356,0)" /><inkscape:perspective
       sodipodi:type="inkscape:persp3d"
       inkscape:vp_x="0 : 32 : 1"
       inkscape:vp_y="0 : 1000 : 0"
       inkscape:vp_z="64 : 32 : 1"
       inkscape:persp3d-origin="32 : 21.333333 : 1"
       id="perspective5829" /><radialGradient
       inkscape:collect="always"
       xlink:href="#linearGradient6349"
       id="radialGradient6355"
       cx="1103.6399"
       cy="1424.4465"
       fx="1103.6399"
       fy="1424.4465"
       r="194.40614"
       gradientTransform="matrix(-1.4307499,-1.3605156e-7,-1.202713e-8,0.1264801,2674.7488,1244.2826)"
       gradientUnits="userSpaceOnUse" /><linearGradient
       inkscape:collect="always"
       id="linearGradient3791-6"><stop
         style="stop-color:#204a87;stop-opacity:1"
         offset="0"
         id="stop3793-7" /><stop
         style="stop-color:#729fcf;stop-opacity:1"
         offset="1"
         id="stop3795-5" /></linearGradient><linearGradient
       inkscape:collect="always"
       xlink:href="#linearGradient3791-6"
       id="linearGradient3820"
       x1="939.98767"
       y1="1097.5122"
       x2="893.2572"
       y2="989.77716"
       gradientUnits="userSpaceOnUse" /><linearGradient
       inkscape:collect="always"
       id="linearGradient3774"><stop
         style="stop-color:#4e9a06;stop-opacity:1"
         offset="0"
         id="stop3776" /><stop
         style="stop-color:#8ae234;stop-opacity:1"
         offset="1"
         id="stop3778" /></linearGradient><linearGradient
       inkscape:collect="always"
       xlink:href="#linearGradient3774"
       id="linearGradient5137"
       gradientUnits="userSpaceOnUse"
       gradientTransform="matrix(-0.51964051,0,0,0.50042191,1386.3532,982.21378)"
       x1="288.11227"
       y1="358.15811"
       x2="372.52457"
       y2="7.5416322" /><linearGradient
       inkscape:collect="always"
       xlink:href="#linearGradient3774"
       id="linearGradient2"
       gradientUnits="userSpaceOnUse"
       gradientTransform="matrix(-0.51964051,0,0,0.50042191,1386.3532,982.21378)"
       x1="288.11227"
       y1="358.15811"
       x2="372.52457"
       y2="7.5416322" /></defs><g
     inkscape:label="Calque 1"
     inkscape:groupmode="layer"
     id="layer1"><g
       transform="matrix(0.13105311,-0.00402988,0.00402988,0.13105311,-138.57734,-122.00744)"
       id="g2"
       inkscape:label="Arrow"><path
         style="opacity:1;fill:#8ae234;fill-opacity:1;stroke:#172a04;stroke-width:14.7326;stroke-miterlimit:4;stroke-dasharray:none;stroke-opacity:1"
         inkscape:connector-curvature="0"
         d="m 1145.5648,1074.1543 c 18.5937,-18.383 48.2169,-28.9064 88.8688,-31.5737 v -37.4326 c 0,-4.0003 1.9294,-6.80966 5.7868,-8.43006 4.0547,-1.61639 7.5171,-0.95178 10.3849,2.00121 l 75.9581,73.15065 c 1.8799,1.8121 2.8184,3.9543 2.8184,6.4303 0,2.4767 -0.9389,4.6185 -2.8184,6.429 l -75.9602,73.1502 c -1.7833,1.81 -4.0064,2.7148 -6.6772,2.7148 -1.1865,0 -2.4222,-0.2382 -3.7083,-0.7141 -3.8572,-1.6204 -5.7882,-4.4273 -5.7882,-8.4296 v -35.8618 c -15.9228,1.2386 -29.1503,3.7387 -39.6881,7.5008 -10.5331,3.7627 -18.9637,9.0247 -25.2946,15.7879 -14.738,15.7158 -19.9806,42.6214 -15.7274,80.7237 0.1953,2.4775 -0.9389,4.0963 -3.4125,4.858 -0.2967,0.097 -0.7414,0.142 -1.3349,0.142 -1.9778,0 -3.361,-0.8095 -4.154,-2.4285 l -2.9667,-5.7148 c -1.3832,-2.6676 -3.3858,-6.9784 -6.007,-12.9313 -2.6194,-5.9556 -4.9969,-11.9071 -7.1237,-17.8612 -2.1269,-5.9515 -4.0298,-12.5235 -5.7119,-19.7147 -1.6805,-7.194 -2.5219,-13.5508 -2.5219,-19.074 0,-32.0039 8.3606,-56.2428 25.078,-72.7222 z"
         id="path1" /><path
         inkscape:connector-curvature="0"
         id="path2"
         d="m 1252.6459,1025.0625 c 18.4441,17.7617 37.1632,35.1962 55.3062,53.3235 -19.0906,18.0067 -37.542,36.7844 -56.7747,54.6184 -0.018,-12.2743 -0.087,-24.5491 0.032,-36.8231 -26.4463,1.6409 -53.9694,3.575 -77.8197,17.2303 -17.0095,9.5803 -28.4884,27.8106 -34.5388,47.088 -3.5743,-21.5969 -1.2897,-45.3408 10.607,-63.6609 11.0273,-16.9013 29.5358,-25.7267 47.629,-30.3404 14.7839,-4.3279 30.2561,-4.0127 45.1276,-7.7257 7.8392,-4.3982 10.4187,-14.9284 9.2176,-23.8416 -0.062,-3.7919 -0.2886,-7.6325 -0.4323,-11.451 0.5488,0.5275 1.0977,1.055 1.6465,1.5825 z"
         style="opacity:1;fill:url(#linearGradient2);fill-opacity:1;stroke:none;stroke-width:34.7533;stroke-miterlimit:4;stroke-dasharray:none;stroke-opacity:1" /></g><g
       id="layer1-7"
       transform="matrix(0.6775642,0,0,0.6775642,-4.3300217,-648.81281)"
       inkscape:label="Axis"><g
         id="g4036-9-5"
         transform="matrix(0.42333463,-1.0406928,1.2322046,0.04560555,-18.902112,1031.4247)"
         style="fill:#73d216;fill-opacity:1;stroke:#172a04;stroke-width:1.753;stroke-linecap:round;stroke-linejoin:round;stroke-miterlimit:4;stroke-dasharray:none;stroke-opacity:1"><g
           id="g4033-8-3"
           transform="matrix(0.70857077,0.64561924,-0.7760537,0.70710678,30.848953,1.7173836)"
           style="fill:#73d216;fill-opacity:1;stroke:#172a04;stroke-width:1.75119;stroke-linecap:round;stroke-linejoin:round;stroke-miterlimit:4;stroke-dasharray:none;stroke-opacity:1"><rect
             style="fill:#73d216;fill-opacity:1;stroke:#172a04;stroke-width:1.75119;stroke-linecap:round;stroke-linejoin:round;stroke-miterlimit:4;stroke-dasharray:none;stroke-opacity:1"
             id="rect3261-1-56"
             width="23"
             height="6"
             x="-25"
             y="-38"
             transform="scale(-1)" /></g></g><path
         style="fill:none;fill-opacity:1;stroke:#8ae234;stroke-width:2;stroke-linecap:butt;stroke-linejoin:miter;stroke-opacity:1"
         d="m 17.758513,1025.996 23.516681,-15.1976"
         id="path4083-0-29" /><g
         style="fill:#cc0000;fill-opacity:1;stroke:#280000;stroke-width:1.77168;stroke-linecap:round;stroke-linejoin:round;stroke-miterlimit:4;stroke-dasharray:none;stroke-opacity:1"
         transform="matrix(-0.09950839,-1.2704661,0.99694669,-0.07808517,-7.0272263,1034.6728)"
         id="g4033-8-5"><rect
           transform="matrix(-0.61568026,0.78799608,-0.61567913,-0.78799696,0,0)"
           y="-22.253193"
           x="11.761694"
           height="4.9622731"
           width="24.257404"
           id="rect3261-1-6"
           style="fill:#cc0000;fill-opacity:1;stroke:#280000;stroke-width:1.65466;stroke-linecap:round;stroke-linejoin:round;stroke-miterlimit:4;stroke-dasharray:none;stroke-opacity:1" /></g><path
         style="fill:none;stroke:#ef2929;stroke-width:2;stroke-linecap:butt;stroke-linejoin:miter;stroke-opacity:1"
         d="M 38.136962,1045.4634 17.397878,1027.7269"
         id="path4083-0-2" /><path
         id="path872-8"
         d="m 44,1049.0419 -8.562552,-14.5923 c -4.048591,1.9848 -5.937899,5.0071 -7.162254,8.3488 z"
         style="fill:url(#linearGradient928);fill-opacity:1;stroke:#280000;stroke-width:2.50713;stroke-linecap:butt;stroke-linejoin:round;stroke-miterlimit:4;stroke-dasharray:none;stroke-opacity:1" /><path
         style="fill:url(#linearGradient920);fill-opacity:1;stroke:#172a04;stroke-width:2.50713;stroke-linecap:butt;stroke-linejoin:round;stroke-miterlimit:4;stroke-dasharray:none;stroke-opacity:1"
         d="m 52.025756,1005.4549 -16.544154,3.5417 c 0.611589,4.4672 2.886818,7.2108 5.674284,9.4235 z"
         id="path872-8-1" /><g
         id="g4036-9"
         transform="matrix(-0.64428531,-0.92040759,0.70710678,-1.0101525,0.936348,1060.8558)"
         style="fill:#3465a4;fill-opacity:1;stroke:#0b1521;stroke-width:1.753;stroke-linecap:round;stroke-linejoin:round;stroke-miterlimit:4;stroke-dasharray:none;stroke-opacity:1"><g
           id="g4033-8"
           transform="matrix(0.53748674,0.48973482,-0.7760537,0.70710678,30.821878,1.6927139)"
           style="fill:#3465a4;fill-opacity:1;stroke:#0b1521;stroke-width:1.75119;stroke-linecap:round;stroke-linejoin:round;stroke-miterlimit:4;stroke-dasharray:none;stroke-opacity:1"><rect
             style="fill:#3465a4;fill-opacity:1;stroke:#0b1521;stroke-width:1.75119;stroke-linecap:round;stroke-linejoin:round;stroke-miterlimit:4;stroke-dasharray:none;stroke-opacity:1"
             id="rect3261-1"
             width="23"
             height="6"
             x="-25"
             y="-38"
             transform="scale(-1)" /></g></g><path
         style="fill:none;stroke:#729fcf;stroke-width:2;stroke-linecap:butt;stroke-linejoin:miter;stroke-opacity:1"
         d="M 16.157967,1027.8686 V 999.86865"
         id="path4083-0" /><path
         style="fill:url(#linearGradient912);fill-opacity:1;stroke:#0b1521;stroke-width:2.50713;stroke-linecap:butt;stroke-linejoin:round;stroke-miterlimit:4;stroke-dasharray:none;stroke-opacity:1"
         d="m 17.171767,991.6197 -5.5,16.0002 c 4.142481,1.7805 7.666483,1.2466 11,0 z"
         id="path872" /></g><g
       id="layer1-3"
       inkscape:label="Mesh"
       transform="translate(0.84978351,-21.605391)"><g
         id="g3038"
         transform="matrix(1,0,0,0.85817381,37.19377,2.8828565)"
         style="display:inline"><g
           style="stroke-width:3.5;stroke-miterlimit:4;stroke-dasharray:none"
           transform="matrix(0.67067175,0,0,0.64145918,-128.10074,-38.37114)"
           id="g3618"><path
             style="fill:#4e9a06;stroke:none"
             d="m 226.49973,114.52887 v 36.3317 l -17.89251,14.53268 v -36.33171 z"
             id="path3150-7-4"
             inkscape:connector-curvature="0"
             sodipodi:nodetypes="ccccc" /><path
             style="fill:none;stroke:#73d216;stroke-width:3.29157;stroke-linecap:butt;stroke-linejoin:miter;stroke-miterlimit:4;stroke-dasharray:none;stroke-opacity:1"
             d="M 208.60722,161.76008 226.49973,147.2274"
             id="path3930-0"
             inkscape:connector-curvature="0" /><path
             style="fill:none;stroke:#73d216;stroke-width:3.29157;stroke-linecap:butt;stroke-linejoin:miter;stroke-miterlimit:4;stroke-dasharray:none;stroke-opacity:1"
             d="m 223.51764,154.49374 v -36.3317"
             id="path3932-9"
             inkscape:connector-curvature="0" /><path
             style="fill:none;stroke:#73d216;stroke-width:3.29157;stroke-linecap:butt;stroke-linejoin:miter;stroke-miterlimit:4;stroke-dasharray:none;stroke-opacity:1"
             d="m 226.49973,118.16204 -17.89251,14.53267"
             id="path3934-4"
             inkscape:connector-curvature="0" /><path
             style="fill:none;stroke:#73d216;stroke-width:3.29157;stroke-linecap:butt;stroke-linejoin:miter;stroke-miterlimit:4;stroke-dasharray:none;stroke-opacity:1"
             d="m 211.5893,125.42838 v 36.3317"
             id="path3936-8"
             inkscape:connector-curvature="0" /><path
             style="fill:#73d216;stroke:none"
             d="m 208.60722,165.39325 -23.85668,-14.53268 v -36.3317 l 23.85668,14.53267 z"
             id="path3152-1-8"
             inkscape:connector-curvature="0" /><path
             style="fill:none;stroke:#8ae234;stroke-width:3.29157;stroke-linecap:butt;stroke-linejoin:miter;stroke-miterlimit:4;stroke-dasharray:none;stroke-opacity:1"
             d="m 205.62513,129.06154 v 32.69854"
             id="path3938-2"
             inkscape:connector-curvature="0" /><path
             style="fill:none;stroke:#8ae234;stroke-width:3.29157;stroke-linecap:butt;stroke-linejoin:miter;stroke-miterlimit:4;stroke-dasharray:none;stroke-opacity:1"
             d="m 184.75054,147.2274 23.85668,14.53268"
             id="path3940-4"
             inkscape:connector-curvature="0" /><path
             style="fill:none;stroke:#8ae234;stroke-width:3.29157;stroke-linecap:butt;stroke-linejoin:miter;stroke-miterlimit:4;stroke-dasharray:none;stroke-opacity:1"
             d="M 187.73263,150.86057 V 118.16204"
             id="path3942-5"
             inkscape:connector-curvature="0" /><path
             style="fill:none;stroke:#172a04;stroke-width:3.29157;stroke-linecap:round;stroke-linejoin:round;stroke-miterlimit:4;stroke-dasharray:none;stroke-opacity:1"
             d="m 226.49973,114.52887 v 36.3317 l -17.89251,14.53268 v -36.33171 z"
             id="path3150-5"
             inkscape:connector-curvature="0"
             sodipodi:nodetypes="ccccc" /><path
             style="fill:none;stroke:#8ae234;stroke-width:3.29157;stroke-linecap:butt;stroke-linejoin:miter;stroke-miterlimit:4;stroke-dasharray:none;stroke-opacity:1"
             d="M 208.60722,132.69471 184.75054,118.16204"
             id="path3944-1"
             inkscape:connector-curvature="0" /><path
             style="fill:none;stroke:#172a04;stroke-width:3.29157;stroke-linecap:round;stroke-linejoin:round;stroke-miterlimit:4;stroke-dasharray:none;stroke-opacity:1"
             d="m 208.60722,165.39325 -23.85668,-14.53268 v -36.3317 l 23.85668,14.53267 z"
             id="path3152-7"
             inkscape:connector-curvature="0" /><path
             style="fill:#8ae234;stroke:#172a04;stroke-width:3.29157;stroke-linecap:round;stroke-linejoin:round;stroke-miterlimit:4;stroke-dasharray:none;stroke-opacity:1"
             d="m 226.49973,114.52887 -17.89251,14.53267 -23.85668,-14.53267 17.89251,-14.532675 23.85668,14.532675"
             id="path3156-1"
             inkscape:connector-curvature="0" /><path
             style="fill:none;stroke:#172a04;stroke-width:3.29157;stroke-linecap:round;stroke-linejoin:round;stroke-miterlimit:4;stroke-dasharray:none;stroke-opacity:1"
             d="m 184.75054,114.52887 h 41.74919"
             id="path3928-5"
             inkscape:connector-curvature="0"
             sodipodi:nodetypes="cc" /><path
             style="fill:none;stroke:#172a04;stroke-width:3.29157;stroke-linecap:round;stroke-linejoin:round;stroke-miterlimit:4;stroke-dasharray:none;stroke-opacity:1"
             d="m 184.75054,150.86057 23.85668,-21.79902"
             id="path3928-5-3"
             inkscape:connector-curvature="0"
             sodipodi:nodetypes="cc" /><path
             style="fill:none;stroke:#172a04;stroke-width:3.29157;stroke-linecap:round;stroke-linejoin:round;stroke-miterlimit:4;stroke-dasharray:none;stroke-opacity:1"
             d="m 208.60722,165.39325 17.89251,-50.86438"
             id="path3928-5-6"
             inkscape:connector-curvature="0"
             sodipodi:nodetypes="cc" /></g></g></g><g
       transform="matrix(-0.13437373,-0.01472297,0.01472297,-0.13437373,193.24224,213.41801)"
       id="g4218"
       inkscape:label="Arrow"><path
         style="opacity:1;fill:#8ae234;fill-opacity:1;stroke:#172a04;stroke-width:14.7326;stroke-miterlimit:4;stroke-dasharray:none;stroke-opacity:1"
         inkscape:connector-curvature="0"
         d="m 1145.5648,1074.1543 c 18.5937,-18.383 48.2169,-28.9064 88.8688,-31.5737 v -37.4326 c 0,-4.0003 1.9294,-6.80966 5.7868,-8.43006 4.0547,-1.61639 7.5171,-0.95178 10.3849,2.00121 l 75.9581,73.15065 c 1.8799,1.8121 2.8184,3.9543 2.8184,6.4303 0,2.4767 -0.9389,4.6185 -2.8184,6.429 l -75.9602,73.1502 c -1.7833,1.81 -4.0064,2.7148 -6.6772,2.7148 -1.1865,0 -2.4222,-0.2382 -3.7083,-0.7141 -3.8572,-1.6204 -5.7882,-4.4273 -5.7882,-8.4296 v -35.8618 c -15.9228,1.2386 -29.1503,3.7387 -39.6881,7.5008 -10.5331,3.7627 -18.9637,9.0247 -25.2946,15.7879 -14.738,15.7158 -19.9806,42.6214 -15.7274,80.7237 0.1953,2.4775 -0.9389,4.0963 -3.4125,4.858 -0.2967,0.097 -0.7414,0.142 -1.3349,0.142 -1.9778,0 -3.361,-0.8095 -4.154,-2.4285 l -2.9667,-5.7148 c -1.3832,-2.6676 -3.3858,-6.9784 -6.007,-12.9313 -2.6194,-5.9556 -4.9969,-11.9071 -7.1237,-17.8612 -2.1269,-5.9515 -4.0298,-12.5235 -5.7119,-19.7147 -1.6805,-7.194 -2.5219,-13.5508 -2.5219,-19.074 0,-32.0039 8.3606,-56.2428 25.078,-72.7222 z"
         id="path4228" /><path
         inkscape:connector-curvature="0"
         id="path5135"
         d="m 1252.6459,1025.0625 c 18.4441,17.7617 37.1632,35.1962 55.3062,53.3235 -19.0906,18.0067 -37.542,36.7844 -56.7747,54.6184 -0.018,-12.2743 -0.087,-24.5491 0.032,-36.8231 -26.4463,1.6409 -53.9694,3.575 -77.8197,17.2303 -17.0095,9.5803 -28.4884,27.8106 -34.5388,47.088 -3.5743,-21.5969 -1.2897,-45.3408 10.607,-63.6609 11.0273,-16.9013 29.5358,-25.7267 47.629,-30.3404 14.7839,-4.3279 30.2561,-4.0127 45.1276,-7.7257 7.8392,-4.3982 10.4187,-14.9284 9.2176,-23.8416 -0.062,-3.7919 -0.2886,-7.6325 -0.4323,-11.451 0.5488,0.5275 1.0977,1.055 1.6465,1.5825 z"
         style="opacity:1;fill:url(#linearGradient5137);fill-opacity:1;stroke:none;stroke-width:34.7533;stroke-miterlimit:4;stroke-dasharray:none;stroke-opacity:1" /></g></g></svg>
